HIERARCHY
ROOT hip
{
OFFSET -0.18 96.28 0.22
CHANNELS 6 Xposition Yposition Zposition Zrotation Xrotation Yrotation
JOINT abdomen
{
OFFSET 0 7.23 0
CHANNELS 6 Xposition Yposition Zposition Zrotation Xrotation Yrotation
JOINT chest
{
OFFSET 0 16.54 0
CHANNELS 6 Xposition Yposition Zposition Zrotation Xrotation Yrotation
JOINT neck
{
OFFSET 0 34.21 0
CHANNELS 6 Xposition Yposition Zposition Zrotation Xrotation Yrotation
JOINT head
{
OFFSET 0 6.29 0
CHANNELS 6 Xposition Yposition Zposition Zrotation Xrotation Yrotation
End Site
{
OFFSET 0 21.21 0
}
}
}
JOINT lCollar
{
OFFSET 4.06 26.61 -1.12
CHANNELS 6 Xposition Yposition Zposition Zrotation Xrotation Yrotation
JOINT lShldr
{
OFFSET 14.17 0 0
CHANNELS 6 Xposition Yposition Zposition Zrotation Xrotation Yrotation
JOINT lForeArm
{
OFFSET 26.12 0 0
CHANNELS 6 Xposition Yposition Zposition Zrotation Xrotation Yrotation
JOINT lHand
{
OFFSET 27.71 0 0
CHANNELS 6 Xposition Yposition Zposition Zrotation Xrotation Yrotation
JOINT lThumb1
{
OFFSET 2.29 -0.46 1.83
CHANNELS 6 Xposition Yposition Zposition Zrotation Xrotation Yrotation
JOINT lThumb2
{
OFFSET 5.29 0 0
CHANNELS 6 Xposition Yposition Zposition Zrotation Xrotation Yrotation
JOINT lThumb3
{
OFFSET 3.01 0 0
CHANNELS 6 Xposition Yposition Zposition Zrotation Xrotation Yrotation
End Site
{
OFFSET 2.62 0 0
}
}
}
}
JOINT lIndex1
{
OFFSET 9.37 0.29 2.59
CHANNELS 6 Xposition Yposition Zposition Zrotation Xrotation Yrotation
JOINT lIndex2
{
OFFSET 4.34 0 0
CHANNELS 6 Xposition Yposition Zposition Zrotation Xrotation Yrotation
JOINT lIndex3
{
OFFSET 2.16 0 0
CHANNELS 6 Xposition Yposition Zposition Zrotation Xrotation Yrotation
End Site
{
OFFSET 2.20 0 0
}
}
}
}
JOINT lMid1
{
OFFSET 9.47 0.83 0.29
CHANNELS 6 Xposition Yposition Zposition Zrotation Xrotation Yrotation
JOINT lMid2
{
OFFSET 4.77 0 0
CHANNELS 6 Xposition Yposition Zposition Zrotation Xrotation Yrotation
JOINT lMid3
{
OFFSET 2.87 0 0
CHANNELS 6 Xposition Yposition Zposition Zrotation Xrotation Yrotation
End Site
{
OFFSET 2.09 0 0
}
}
}
}
JOINT lRing1
{
OFFSET 8.65 1.01 -1.70
CHANNELS 6 Xposition Yposition Zposition Zrotation Xrotation Yrotation
JOINT lRing2
{
OFFSET 4.54 0 0
CHANNELS 6 Xposition Yposition Zposition Zrotation Xrotation Yrotation
JOINT lRing3
{
OFFSET 2.50 0 0
CHANNELS 6 Xposition Yposition Zposition Zrotation Xrotation Yrotation
End Site
{
OFFSET 2.20 0 0
}
}
}
}
JOINT lPinky1
{
OFFSET 7.69 0.66 -3.90
CHANNELS 6 Xposition Yposition Zposition Zrotation Xrotation Yrotation
JOINT lPinky2
{
OFFSET 3.21 0 0
CHANNELS 6 Xposition Yposition Zposition Zrotation Xrotation Yrotation
JOINT lPinky3
{
OFFSET 1.92 0 0
CHANNELS 6 Xposition Yposition Zposition Zrotation Xrotation Yrotation
End Site
{
OFFSET 1.78 0 0
}
}
}
}
}
}
}
}
JOINT rCollar
{
OFFSET -4.06 26.61 -1.12
CHANNELS 6 Xposition Yposition Zposition Zrotation Xrotation Yrotation
JOINT rShldr
{
OFFSET -14.17 0 0
CHANNELS 6 Xposition Yposition Zposition Zrotation Xrotation Yrotation
JOINT rForeArm
{
OFFSET -26.12 0 0
CHANNELS 6 Xposition Yposition Zposition Zrotation Xrotation Yrotation
JOINT rHand
{
OFFSET -27.71 0 0
CHANNELS 6 Xposition Yposition Zposition Zrotation Xrotation Yrotation
JOINT rThumb1
{
OFFSET -2.29 -0.46 1.83
CHANNELS 6 Xposition Yposition Zposition Zrotation Xrotation Yrotation
JOINT rThumb2
{
OFFSET -5.29 0 0
CHANNELS 6 Xposition Yposition Zposition Zrotation Xrotation Yrotation
JOINT rThumb3
{
OFFSET -3.01 0 0
CHANNELS 6 Xposition Yposition Zposition Zrotation Xrotation Yrotation
End Site
{
OFFSET -2.62 0 0
}
}
}
}
JOINT rIndex1
{
OFFSET -9.37 0.29 2.59
CHANNELS 6 Xposition Yposition Zposition Zrotation Xrotation Yrotation
JOINT rIndex2
{
OFFSET -4.34 0 0
CHANNELS 6 Xposition Yposition Zposition Zrotation Xrotation Yrotation
JOINT rIndex3
{
OFFSET -2.16 0 0
CHANNELS 6 Xposition Yposition Zposition Zrotation Xrotation Yrotation
End Site
{
OFFSET -2.20 0 0
}
}
}
}
JOINT rMid1
{
OFFSET -9.47 0.83 0.29
CHANNELS 6 Xposition Yposition Zposition Zrotation Xrotation Yrotation
JOINT rMid2
{
OFFSET -4.77 0 0
CHANNELS 6 Xposition Yposition Zposition Zrotation Xrotation Yrotation
JOINT rMid3
{
OFFSET -2.87 0 0
CHANNELS 6 Xposition Yposition Zposition Zrotation Xrotation Yrotation
End Site
{
OFFSET -2.09 0 0
}
}
}
}
JOINT rRing1
{
OFFSET -8.65 1.01 -1.70
CHANNELS 6 Xposition Yposition Zposition Zrotation Xrotation Yrotation
JOINT rRing2
{
OFFSET -4.54 0 0
CHANNELS 6 Xposition Yposition Zposition Zrotation Xrotation Yrotation
JOINT rRing3
{
OFFSET -2.50 0 0
CHANNELS 6 Xposition Yposition Zposition Zrotation Xrotation Yrotation
End Site
{
OFFSET -2.20 0 0
}
}
}
}
JOINT rPinky1
{
OFFSET -7.69 0.66 -3.90
CHANNELS 6 Xposition Yposition Zposition Zrotation Xrotation Yrotation
JOINT rPinky2
{
OFFSET -3.21 0 0
CHANNELS 6 Xposition Yposition Zposition Zrotation Xrotation Yrotation
JOINT rPinky3
{
OFFSET -1.92 0 0
CHANNELS 6 Xposition Yposition Zposition Zrotation Xrotation Yrotation
End Site
{
OFFSET -1.78 0 0
}
}
}
}
}
}
}
}
}
}
JOINT lThigh
{
OFFSET 8.73 -0 0
CHANNELS 6 Xposition Yposition Zposition Zrotation Xrotation Yrotation
JOINT lShin
{
OFFSET 0 -46.66 0
CHANNELS 6 Xposition Yposition Zposition Zrotation Xrotation Yrotation
JOINT lFoot
{
OFFSET 0 -40.14 0
CHANNELS 6 Xposition Yposition Zposition Zrotation Xrotation Yrotation
JOINT lToes
{
OFFSET 0 -8.88 14.22
CHANNELS 6 Xposition Yposition Zposition Zrotation Xrotation Yrotation
End Site
{
OFFSET 0 0 6.29
}
}
}
}
}
JOINT rThigh
{
OFFSET -8.73 0 -0
CHANNELS 6 Xposition Yposition Zposition Zrotation Xrotation Yrotation
JOINT rShin
{
OFFSET 0 -46.66 0
CHANNELS 6 Xposition Yposition Zposition Zrotation Xrotation Yrotation
JOINT rFoot
{
OFFSET 0 -40.14 0
CHANNELS 6 Xposition Yposition Zposition Zrotation Xrotation Yrotation
JOINT rToes
{
OFFSET 0 -8.88 14.22
CHANNELS 6 Xposition Yposition Zposition Zrotation Xrotation Yrotation
End Site
{
OFFSET 0 0 6.29
}
}
}
}
}
}
MOTION
Frames: 5
Frame Time: 0.03
0.14 96.07 0.86 -1.77 -7.00 -12.78 0 7.23 0 3.70 -2.70 0.30 0 16.54 0 7.54 -3.55 0.27 0 34.21 0 2.37 35.20 -0.05 0 6.29 0 -3.40 -28.03 4.53 4.06 26.61 -1.12 -5.90 -2.24 -10.75 14.17 0 0 -82.72 6.53 2.16 26.12 0 0 -0.08 0 -5.37 27.71 0 0 -8.10 -36.30 -11.91 2.29 -0.46 1.83 59.01 62.91 -84.55 5.29 0 0 -28.81 6.37 18.71 3.01 0 0 17.98 -4.17 13.57 9.37 0.29 2.59 5.64 -1.02 -5.13 4.34 0 0 -15.93 -0.18 3.27 2.16 0 0 -8.92 -0.13 1.36 9.47 0.83 0.29 0.19 -4.21 -0.31 4.77 0 0 -15.35 -0.44 3.94 2.87 0 0 -12.40 -0.23 4.59 8.65 1.01 -1.70 -8.65 2.13 1.43 4.54 0 0 -18.90 -0.42 2.55 2.50 0 0 -9.21 -0.04 2.19 7.69 0.66 -3.90 -20 -12.61 5.46 3.21 0 0 -15.02 -0.68 5.17 1.92 0 0 -9.72 -0.22 4.89 -4.06 26.61 -1.12 9.02 -1.07 11.05 -14.17 0 0 64.58 35.29 5.28 -26.12 0 0 0.16 0.01 10.99 -27.71 0 0 10.52 -19.23 7.76 -2.29 -0.46 1.83 -53.06 67.52 67.67 -5.29 0 0 32.77 4.46 -16.91 -3.01 0 0 -18.40 -3.02 -15.33 -9.37 0.29 2.59 -14.53 0.17 4.98 -4.34 0 0 14.79 -0.07 -2.72 -2.16 0 0 7.52 -0.08 -0.96 -9.47 0.83 0.29 -5.62 -4.12 -3.18 -4.77 0 0 15.73 -0.41 -3.69 -2.87 0 0 12.28 -0.20 -4.20 -8.65 1.01 -1.70 -0.14 2.50 -6.00 -4.54 0 0 19.97 -0.40 -2.28 -2.50 0 0 9.31 -0.04 -1.86 -7.69 0.66 -3.90 -2.39 -10.27 -7.55 -3.21 0 0 14.70 -0.61 -4.72 -1.92 0 0 9.89 -0.22 -4.62 8.73 -0 0 8.01 -2.69 23.62 0 -46.66 0 4.82 17.73 8.97 0 -40.14 0 -7.77 -4.64 7.82 0 -8.88 14.22 0 0 0 -8.73 0 -0 -2.26 0.18 -18.84 0 -46.66 0 -3.09 19.25 -5.14 0 -40.14 0 4.52 -10.86 -5.17 0 -8.88 14.22 0 0 -0 
0.10 96.04 0.87 -1.86 -6.96 -12.62 0 7.23 0 3.70 -2.58 0.39 0 16.54 0 7.54 -3.29 0.44 0 34.21 0 2.33 34.96 -0.12 0 6.29 0 -3.32 -27.76 4.08 4.06 26.61 -1.12 -6.08 -2.17 -11.04 14.17 0 0 -83.85 9.91 2.79 26.12 0 0 -0 0 -0.59 27.71 0 0 -10.32 -37.04 -9.58 2.29 -0.46 1.83 59.93 61.26 -86.95 5.29 0 0 -29.10 6.03 17.79 3.01 0 0 18.16 -4.01 13.09 9.37 0.29 2.59 4.06 -1.18 -5.10 4.34 0 0 -15.89 -0.17 3.26 2.16 0 0 -8.88 -0.13 1.35 9.47 0.83 0.29 -0.92 -4.24 -0.42 4.77 0 0 -15.57 -0.45 3.99 2.87 0 0 -12.62 -0.25 4.64 8.65 1.01 -1.70 -9.04 2.11 1.46 4.54 0 0 -19.01 -0.43 2.57 2.50 0 0 -9.33 -0.04 2.20 7.69 0.66 -3.90 -18.04 -12.44 4.94 3.21 0 0 -15.25 -0.70 5.25 1.92 0 0 -9.96 -0.24 4.98 -4.06 26.61 -1.12 9.48 -0.88 11.98 -14.17 0 0 65.97 34.08 1.45 -26.12 0 0 0.10 0 7.02 -27.71 0 0 13.02 -20.89 5.44 -2.29 -0.46 1.83 -53.61 66.88 68.80 -5.29 0 0 32.67 4.55 -17.41 -3.01 0 0 -18.35 -3.05 -15.70 -9.37 0.29 2.59 -12.93 0.22 4.94 -4.34 0 0 15.01 -0.08 -2.76 -2.16 0 0 7.74 -0.08 -1.00 -9.47 0.83 0.29 -4.19 -4.14 -2.79 -4.77 0 0 15.87 -0.42 -3.72 -2.87 0 0 12.44 -0.21 -4.24 -8.65 1.01 -1.70 1.12 2.46 -5.48 -4.54 0 0 20.06 -0.40 -2.29 -2.50 0 0 9.39 -0.04 -1.87 -7.69 0.66 -3.90 -0.47 -10.16 -7.09 -3.21 0 0 14.77 -0.61 -4.74 -1.92 0 0 9.88 -0.22 -4.62 8.73 -0 0 8.17 -2.84 23.74 0 -46.66 0 4.91 17.97 8.66 0 -40.14 0 -7.77 -4.77 7.79 0 -8.88 14.22 0 0 0 -8.73 0 -0 -2.09 0.16 -18.79 0 -46.66 0 -3.14 19.30 -5.12 0 -40.14 0 4.52 -10.95 -5.42 0 -8.88 14.22 0 0 0 
0.05 96.01 0.87 -1.96 -6.84 -12.37 0 7.23 0 3.73 -2.41 0.43 0 16.54 0 7.54 -2.97 0.52 0 34.21 0 2.29 34.54 -0.18 0 6.29 0 -3.23 -27.75 3.68 4.06 26.61 -1.12 -6.26 -2.06 -11.60 14.17 0 0 -84.66 11.61 4.00 26.12 0 0 0 0 0 27.71 0 0 -12.05 -33.37 -4.55 2.29 -0.46 1.83 60.57 61.26 -88.57 5.29 0 0 -28.93 6.23 18.34 3.01 0 0 18.06 -4.12 13.29 9.37 0.29 2.59 1.23 -1.25 -4.57 4.34 0 0 -15.97 -0.18 3.27 2.16 0 0 -8.96 -0.13 1.37 9.47 0.83 0.29 -3.39 -4.32 -0.12 4.77 0 0 -15.80 -0.47 4.05 2.87 0 0 -12.85 -0.26 4.70 8.65 1.01 -1.70 -10.14 2.05 1.60 4.54 0 0 -19.25 -0.44 2.60 2.50 0 0 -9.56 -0.05 2.24 7.69 0.66 -3.90 -17.18 -12.37 4.62 3.21 0 0 -15.38 -0.71 5.29 1.92 0 0 -10.09 -0.24 5.02 -4.06 26.61 -1.12 9.65 -0.75 12.71 -14.17 0 0 67.19 31.49 -1.98 -26.12 0 0 0.06 0 4.00 -27.71 0 0 15.42 -18.93 -1.27 -2.29 -0.46 1.83 -54.20 66.23 70.08 -5.29 0 0 32.57 4.65 -17.95 -3.01 0 0 -18.30 -3.11 -16.06 -9.37 0.29 2.59 -11.29 0.26 4.89 -4.34 0 0 15.22 -0.09 -2.80 -2.16 0 0 7.95 -0.09 -1.04 -9.47 0.83 0.29 -2.77 -4.16 -2.41 -4.77 0 0 15.98 -0.43 -3.74 -2.87 0 0 12.55 -0.22 -4.26 -8.65 1.01 -1.70 2.44 2.42 -4.99 -4.54 0 0 20.15 -0.40 -2.30 -2.50 0 0 9.48 -0.04 -1.88 -7.69 0.66 -3.90 1.56 -10.05 -6.66 -3.21 0 0 14.84 -0.62 -4.76 -1.92 0 0 9.89 -0.22 -4.62 8.73 -0 0 8.38 -3.12 23.89 0 -46.66 0 5.01 18.26 8.26 0 -40.14 0 -7.74 -4.92 7.76 0 -8.88 14.22 0 0 0 -8.73 0 -0 -1.87 0.11 -18.73 0 -46.66 0 -3.19 19.27 -5.09 0 -40.14 0 4.53 -11.00 -5.76 0 -8.88 14.22 0 0 -0 
0.02 95.99 0.87 -2.05 -6.60 -12.04 0 7.23 0 3.74 -2.22 0.42 0 16.54 0 7.51 -2.58 0.50 0 34.21 0 2.32 33.97 -0.22 0 6.29 0 -3.05 -28.39 3.37 4.06 26.61 -1.12 -6.41 -1.98 -12.07 14.17 0 0 -85.14 12.52 5.88 26.12 0 0 0 0 0 27.71 0 0 -14.05 -28.09 -0.27 2.29 -0.46 1.83 59.80 62.35 -86.61 5.29 0 0 -28.53 6.71 19.60 3.01 0 0 17.83 -4.38 13.76 9.37 0.29 2.59 -0.55 -1.19 -4.00 4.34 0 0 -16.18 -0.19 3.32 2.16 0 0 -9.17 -0.14 1.41 9.47 0.83 0.29 -5.38 -4.40 0.25 4.77 0 0 -15.96 -0.48 4.09 2.87 0 0 -13.02 -0.27 4.74 8.65 1.01 -1.70 -11.61 1.96 1.87 4.54 0 0 -19.51 -0.45 2.63 2.50 0 0 -9.82 -0.06 2.27 7.69 0.66 -3.90 -17.75 -12.41 4.61 3.21 0 0 -15.45 -0.72 5.31 1.92 0 0 -10.15 -0.25 5.04 -4.06 26.61 -1.12 9.50 -0.73 12.93 -14.17 0 0 68.28 28.93 -4.76 -26.12 0 0 0.02 0 1.85 -27.71 0 0 17.84 -14.22 -8.91 -2.29 -0.46 1.83 -54.77 65.57 71.42 -5.29 0 0 32.46 4.77 -18.53 -3.01 0 0 -18.25 -3.17 -16.43 -9.37 0.29 2.59 -9.65 0.27 4.82 -4.34 0 0 15.41 -0.10 -2.83 -2.16 0 0 8.14 -0.09 -1.08 -9.47 0.83 0.29 -1.37 -4.19 -2.04 -4.77 0 0 16.04 -0.44 -3.76 -2.87 0 0 12.63 -0.22 -4.28 -8.65 1.01 -1.70 3.80 2.37 -4.52 -4.54 0 0 20.24 -0.41 -2.31 -2.50 0 0 9.57 -0.04 -1.89 -7.69 0.66 -3.90 3.72 -9.95 -6.24 -3.21 0 0 14.91 -0.62 -4.79 -1.92 0 0 9.91 -0.22 -4.63 8.73 -0 0 8.59 -3.54 24.02 0 -46.66 0 5.12 18.53 7.79 0 -40.14 0 -7.70 -5.06 7.74 0 -8.88 14.22 0 0 0 -8.73 0 -0 -1.61 -0.01 -18.66 0 -46.66 0 -3.23 19.15 -5.07 0 -40.14 0 4.53 -11.02 -6.21 0 -8.88 14.22 0 0 -0 
0.02 95.98 0.86 -2.09 -6.24 -11.62 0 7.23 0 3.71 -2.04 0.38 0 16.54 0 7.39 -2.22 0.42 0 34.21 0 2.45 33.45 -0.29 0 6.29 0 -2.67 -29.76 3.18 4.06 26.61 -1.12 -6.55 -1.94 -12.14 14.17 0 0 -85.33 13.63 8.38 26.12 0 0 0 0 -0 27.71 0 0 -15.17 -25.85 0.74 2.29 -0.46 1.83 57.45 62.87 -81.36 5.29 0 0 -28.36 6.92 20.14 3.01 0 0 17.72 -4.49 14.00 9.37 0.29 2.59 -0.77 -1.09 -3.74 4.34 0 0 -16.37 -0.20 3.36 2.16 0 0 -9.36 -0.14 1.45 9.47 0.83 0.29 -6.25 -4.44 0.51 4.77 0 0 -16.07 -0.49 4.12 2.87 0 0 -13.13 -0.28 4.77 8.65 1.01 -1.70 -12.84 1.88 2.17 4.54 0 0 -19.74 -0.46 2.66 2.50 0 0 -10.04 -0.06 2.30 7.69 0.66 -3.90 -18.67 -12.45 4.72 3.21 0 0 -15.55 -0.73 5.35 1.92 0 0 -10.26 -0.26 5.08 -4.06 26.61 -1.12 9.27 -0.82 12.50 -14.17 0 0 69.10 28.09 -6.97 -26.12 0 0 0.01 0 1.15 -27.71 0 0 19.21 -10.36 -13.25 -2.29 -0.46 1.83 -55.26 64.93 72.76 -5.29 0 0 32.35 4.89 -19.15 -3.01 0 0 -18.19 -3.25 -16.80 -9.37 0.29 2.59 -8.00 0.27 4.73 -4.34 0 0 15.59 -0.11 -2.87 -2.16 0 0 8.33 -0.10 -1.11 -9.47 0.83 0.29 0.03 -4.22 -1.69 -4.77 0 0 16.08 -0.44 -3.77 -2.87 0 0 12.69 -0.22 -4.30 -8.65 1.01 -1.70 5.20 2.32 -4.10 -4.54 0 0 20.32 -0.41 -2.32 -2.50 0 0 9.67 -0.04 -1.90 -7.69 0.66 -3.90 5.95 -9.87 -5.86 -3.21 0 0 14.99 -0.63 -4.81 -1.92 0 0 9.94 -0.22 -4.64 8.73 -0 0 8.76 -4.07 24.10 0 -46.66 0 5.21 18.70 7.32 0 -40.14 0 -7.65 -5.10 7.74 0 -8.88 14.22 0 0 -0 -8.73 0 -0 -1.34 -0.24 -18.58 0 -46.66 0 -3.29 18.94 -5.05 0 -40.14 0 4.50 -10.98 -6.75 0 -8.88 14.22 0 0 -0 
